<svg width="429" height="110" viewBox="0 0 429 110" fill="none" xmlns="http://www.w3.org/2000/svg">
<g clip-path="url(#clip0_10698_100)">
<path d="M51.1663 41.8333L42.1663 25H37.833L28.833 41.8333H51.1663Z" fill="#2F2F2F"/>
<path d="M30.1667 25H18.3333L5 41.8333H21.3333L30.1667 25Z" fill="#2F2F2F"/>
<path d="M74.9997 41.8333L61.6663 25H49.833L58.6663 41.8333H74.9997Z" fill="#2F2F2F"/>
<path d="M27.833 48.6667L39.9997 88.3334L52.1663 48.6667H27.833Z" fill="#2F2F2F"/>
<path d="M50.5 77.1667L75 48.6667H59.1667L50.5 77.1667Z" fill="#2F2F2F"/>
<path d="M5.16699 48.6667L29.5003 77.1667L20.8337 48.6667H5.16699Z" fill="#2F2F2F"/>
</g>
<path d="M127.23 28L144.52 77H135.98L130.24 59.92H115.54L109.59 77H101.05L118.9 28H127.23ZM122.96 38.5L118.06 52.57H127.72L122.96 38.5ZM151.819 77V28H159.799C167.266 28 173.379 30.2633 178.139 34.79C182.946 39.27 185.349 45.1733 185.349 52.5C185.349 56.7 184.602 60.41 183.109 63.63C181.616 66.8033 179.516 69.3467 176.809 71.26C174.149 73.1733 171.069 74.62 167.569 75.6C164.069 76.5333 160.196 77 155.949 77H151.819ZM172.329 64.68C175.596 61.5533 177.229 57.4933 177.229 52.5C177.229 47.5067 175.596 43.47 172.329 40.39C169.062 37.2633 164.886 35.7 159.799 35.7V69.3C164.886 69.3 169.062 67.76 172.329 64.68ZM224.987 77L204.267 60.06L198.457 77H189.917L207.767 28H216.097L233.387 77H224.987ZM211.827 38.5L206.857 52.78L220.507 63.77L211.827 38.5ZM240.686 77V28H248.666L264.416 66.71L280.236 28H288.216V77H280.236V47.53L268.476 77H260.356L248.666 47.53V77H240.686ZM330.261 77L309.541 60.06L303.731 77H295.191L313.041 28H321.371L338.661 77H330.261ZM317.101 38.5L312.131 52.78L325.781 63.77L317.101 38.5ZM372.56 40.81H365C365 38.8033 364.44 37.2167 363.32 36.05C362.246 34.8833 360.776 34.3 358.91 34.3C356.996 34.3 355.456 34.86 354.29 35.98C353.123 37.1 352.54 38.5 352.54 40.18C352.54 41.86 353.006 43.2133 353.94 44.24C354.92 45.22 356.576 46.0367 358.91 46.69L361.22 47.32C365.886 48.58 369.433 50.33 371.86 52.57C374.286 54.7633 375.5 58.1467 375.5 62.72C375.5 67.1533 373.936 70.8167 370.81 73.71C367.73 76.5567 363.81 77.98 359.05 77.98C354.29 77.98 350.37 76.4867 347.29 73.5C344.256 70.5133 342.74 66.5467 342.74 61.6H350.37C350.37 64.1667 351.186 66.3133 352.82 68.04C354.5 69.7667 356.576 70.63 359.05 70.63C361.663 70.63 363.763 69.8833 365.35 68.39C366.936 66.8967 367.73 65.0067 367.73 62.72C367.73 60.5733 367.053 58.8933 365.7 57.68C364.346 56.4667 362.153 55.44 359.12 54.6L356.95 54.04C348.97 51.8467 344.98 47.2267 344.98 40.18C344.98 36.26 346.286 33.0867 348.9 30.66C351.513 28.1867 354.85 26.95 358.91 26.95C363.296 26.95 366.656 28.14 368.99 30.52C371.37 32.8533 372.56 36.2833 372.56 40.81Z" fill="#2F2F2F"/>
<defs>
<clipPath id="clip0_10698_100">
<rect width="80" height="80" fill="white" transform="translate(0 15)"/>
</clipPath>
</defs>
</svg>
